<svg id="Layer_1" data-name="Layer 1" xmlns="http://www.w3.org/2000/svg" viewBox="0 0 322.03 280.3"><defs><style>.cls-1{font-size:46px;font-family:Sansation-Bold, Sansation;font-weight:700;}.cls-1,.cls-4,.cls-7{fill:#14448a;}.cls-2{letter-spacing:-0.07em;}.cls-3{fill:#1d71b8;}.cls-4{font-size:11.42px;font-family:Sansation-Regular, Sansation;letter-spacing:0.24em;}.cls-5{fill:#0a4573;}.cls-6{fill:#1e71b8;}</style></defs><text class="cls-1" transform="translate(11.81 192.81)">B<tspan class="cls-2" x="29.67" y="0">L</tspan><tspan x="50.63" y="0">OC</tspan><tspan class="cls-2" x="118.35" y="0">K</tspan><tspan x="147.21" y="0">CHAIN</tspan><tspan class="cls-3"><tspan x="30.79" y="48">EXP</tspan><tspan class="cls-2" x="120.48" y="48">L</tspan><tspan x="141.44" y="48">ORER</tspan></tspan></text><text class="cls-4" transform="translate(125.58 265.3)">BY<tspan class="cls-5" x="20.15" y="0"> </tspan><tspan class="cls-6" x="25.68" y="0">LOGU</tspan></text><path class="cls-3" d="M158.35,134l-8.16-3.34c-2.66-1-5.22-2.21-7.74-3a67.19,67.19,0,0,0-7.28-2.18c-2.34-.28-4.59-.87-6.66-.7l-3,0-2.64.45-2.41.4h0a63.83,63.83,0,0,0,52,12.36c-1.85-.31-3.7-.7-5.56-1.12C164.05,136,161.12,135.12,158.35,134Zm38.15-10.55-5.4.9a36.93,36.93,0,0,1-5.68.16,62.89,62.89,0,0,1-11.75-1.16c-3.84-.9-7.79-1.76-11.54-2.93l-11.08-3.6c-3.61-1.11-7.09-2.39-10.49-3.25a42.54,42.54,0,0,0-5-1.2c-1.64-.3-3.24-.77-4.81-.93-3.11-.16-6.13-.71-8.84-.28-1.37.12-2.71.18-4,.33l-3.41.88-3.12.77-2.3,1.08a64.76,64.76,0,0,0,10,10.41l.61-.42,2.42-1,2.84-1.16c1-.28,2.13-.39,3.29-.59a28.31,28.31,0,0,1,7.54-.27,47.76,47.76,0,0,1,8.17,1.57c5.57,1.43,11,3.84,16.45,5.83,2.69,1.12,5.39,2,8.05,2.9,2.67.6,5.27,1.62,7.85,1.84a38.39,38.39,0,0,0,7.44.58,18.42,18.42,0,0,0,2-.16,64.08,64.08,0,0,0,19.12-13A43.46,43.46,0,0,1,196.5,123.48Z"/><path class="cls-7" d="M185,106.39c1.69-.2,3.61-.79,5.68-1.19,4.14-1.07,8.86-2.63,14.08-4.28,2.63-.81,5.38-1.63,8.25-2.27,2.25-.44,4.54-.81,6.85-1.09A64.06,64.06,0,1,0,99.21,95.8c.93-.28,1.8-.56,2.74-.82,2.46-.78,5.16-1.21,7.8-1.76l4-.7,4-.18a70.56,70.56,0,0,1,7.83,0c2.51.33,4.92.77,7.2,1.16A27.61,27.61,0,0,1,139.08,95c3.79,1.33,6.83,2.67,9,3.5s3.32,1.45,3.32,1.45-1.35-.1-3.63-.39-5.53-.68-9.32-1.37a38.6,38.6,0,0,0-6.18-.47c-2.18-.09-4.48-.18-6.83-.37s-4.79.42-7.25.48l-3.71.26-3.71.74c-2.49.47-5,.78-7.45,1.49-.74.18-1.45.33-2.18.49A63.89,63.89,0,0,0,108.17,113l2.07-1.68c1-.49,2-1,3.09-1.56L117,108c1.33-.45,2.77-.71,4.28-1.1,3-1,6.34-.93,9.91-1.08a63.08,63.08,0,0,1,10.9,1.26c7.49,1.34,14.89,4,22.26,6.07,3.65,1.21,7.29,2.09,10.88,3,3.58.54,7.1,1.63,10.52,1.67a52.43,52.43,0,0,0,9.86,0,21.14,21.14,0,0,0,4.51-.73l4.27-.85,6.5-2.42a63.55,63.55,0,0,0,6.54-10.64c-1.13.17-2.27.35-3.39.54-2.72.59-5.43,1.08-8.06,1.74a111.43,111.43,0,0,1-14.8,2.76,42.87,42.87,0,0,1-6.11.15,40.73,40.73,0,0,1-4.65-.38c-2.52-.4-4-.71-4-.71s1.46-.16,4-.33A35.54,35.54,0,0,0,185,106.39ZM165.57,83.1l-3.92,25.21c-1.28-.37-2.55-.74-3.77-1.16L154.16,83.1l-12.58,9.18-4.14-1.38,10.35-14.17-32.8-5a.65.65,0,0,1-.53-.69.61.61,0,0,1,.53-.58l32.75-5.15L132.45,44.45a.63.63,0,0,1,.11-.79.71.71,0,0,1,.63-.06l21,15.35,5.05-32.81c0-.64,1.16-.64,1.27,0L165.57,59l20.91-15.29c.43-.32,1.07.26.8.79L171.94,65.27l32.81,5.15a.61.61,0,0,1,.47.58.66.66,0,0,1-.47.69l-32.81,5,15.34,21a.53.53,0,0,1-.05.64.59.59,0,0,1-.75.1Z"/><path class="cls-3" d="M165.46,71a5.62,5.62,0,1,1-5.62-5.62A5.63,5.63,0,0,1,165.46,71Z"/></svg>