<svg id="Layer_1" data-name="Layer 1" xmlns="http://www.w3.org/2000/svg" viewBox="0 0 312.3 277.33"><defs><style>.cls-1{fill:#1d1d1b;}.cls-2,.cls-3{fill:#fff;}.cls-3{font-size:11.42px;font-family:Sansation-Regular, Sansation;letter-spacing:0.24em;}</style></defs><rect class="cls-1" x="-139.31" y="-114.57" width="590" height="458.05"/><path class="cls-2" d="M12.21,195.08V163H27.26q9.16,0,9.17,7.49,0,5.48-6,7.83,6.38,1.2,6.38,7.3,0,9.51-10,9.5Zm14.33-5.16q4,0,4-4,0-5-5.91-5h-1.8V177q7.41-1.25,7.41-6.2c0-1.8-1.1-2.7-3.32-2.7H18.16v21.79Z"/><path class="cls-2" d="M47.84,163v27H60.59v5.16H41.88V163Z"/><path class="cls-2" d="M61.72,179.07q0-16.33,16.12-16.33,15.89,0,15.88,16.33T77.84,195.31Q62.43,195.31,61.72,179.07Zm16.12,11.07q9.7,0,9.71-11.2,0-11-9.71-11-9.95,0-10,11Q67.89,190.15,77.84,190.14Z"/><path class="cls-2" d="M124.94,193.74a26.45,26.45,0,0,1-9.43,1.57q-17.3,0-17.29-16.73,0-15.84,17.29-15.84a26.68,26.68,0,0,1,9.43,1.57v5.39a22.5,22.5,0,0,0-9-1.79q-11.56,0-11.57,10.67,0,11.56,11.57,11.56a22.33,22.33,0,0,0,9-1.79Z"/><path class="cls-2" d="M136.51,163v32.12h-5.95V163Zm22.6,0-13.7,15,15.13,17.13H152.3l-12.42-15v-3.86l12-13.26Z"/><path class="cls-2" d="M185,193.74a26.51,26.51,0,0,1-9.44,1.57q-17.29,0-17.29-16.73,0-15.84,17.29-15.84a26.73,26.73,0,0,1,9.44,1.57v5.39a22.55,22.55,0,0,0-9-1.79q-11.56,0-11.56,10.67,0,11.56,11.56,11.56a22.38,22.38,0,0,0,9-1.79Z"/><path class="cls-2" d="M190.64,195.08V163h6v13.26h15.84V163h5.95v32.12h-5.95v-13.7H196.59v13.7Z"/><path class="cls-2" d="M228.42,195.08h-6.11L236,163h6.4l13.92,32.12h-6.4l-3.66-8.76H235.54l2.05-5.16h6.46L239,169.1Z"/><path class="cls-2" d="M266.16,163v32.12h-6V163Z"/><path class="cls-2" d="M272.89,195.08V163h6l16.95,23.41V163h5.73v32.12h-5.95l-17-23.89v23.89Z"/><path class="cls-2" d="M65,211v5.13H48.91v8.08H64.23v5.33H48.85v8.42H65.31v5.16H43V211Z"/><path class="cls-2" d="M80.65,227,68,211h7.52l8.87,11.73L93.27,211h7.53L88.18,227l12.62,16.05H93.27L84.4,231.36l-8.87,11.72H68Z"/><path class="cls-2" d="M104.55,243.08V211h14.37q9.84,0,9.84,9.06,0,9.81-13.45,11.88l-.86-5.3q8.1-1.46,8.09-6.4,0-4-4-4h-8v26.88Z"/><path class="cls-2" d="M138.65,211v27H151.4v5.16H132.69V211Z"/><path class="cls-2" d="M152.53,227.07q0-16.33,16.12-16.33,15.89,0,15.88,16.33t-15.88,16.24Q153.25,243.31,152.53,227.07Zm16.12,11.07q9.71,0,9.71-11.2,0-11-9.71-11-9.94,0-10,11Q158.7,238.15,168.65,238.14Z"/><path class="cls-2" d="M190.15,243V211h14.6q9.84,0,9.84,8.61,0,5.82-7.66,9.63l10.17,13.88h-7.5l-9.77-14v-2.72q8.53-1.45,8.53-6.62,0-3.56-4-3.55h-8.16V243Z"/><path class="cls-2" d="M241.9,211v5.13H225.82v8.08h15.31v5.33H225.75v8.42h16.46v5.16h-22.3V211Z"/><path class="cls-2" d="M247.72,243V211h14.6q9.82,0,9.83,8.61,0,5.82-7.66,9.63l10.18,13.88h-7.5l-9.77-14v-2.72q8.53-1.45,8.53-6.62,0-3.56-4-3.55h-8.15V243Z"/><text class="cls-3" transform="translate(122.61 266.44)">BY LOGU</text><path class="cls-2" d="M155.39,136.3,147.22,133c-2.66-1.05-5.22-2.21-7.73-3a65.67,65.67,0,0,0-7.29-2.17c-2.33-.28-4.58-.88-6.65-.7l-3,0-2.64.44-2.41.41h0a63.83,63.83,0,0,0,52,12.36c-1.85-.31-3.7-.69-5.56-1.12C161.08,138.27,158.16,137.4,155.39,136.3Zm38.14-10.54-5.4.9a35.69,35.69,0,0,1-5.68.15,62.68,62.68,0,0,1-11.74-1.15c-3.85-.9-7.8-1.76-11.55-2.93l-11.08-3.6c-3.6-1.11-7.08-2.4-10.48-3.25a45.41,45.41,0,0,0-5-1.21c-1.63-.3-3.24-.76-4.8-.93-3.11-.15-6.14-.71-8.85-.27-1.37.11-2.71.18-4,.33l-3.42.88-3.12.77-2.3,1.07a64.78,64.78,0,0,0,10,10.41l.61-.41,2.42-1,2.84-1.15c1-.29,2.14-.39,3.29-.6a28.74,28.74,0,0,1,7.54-.27,48.6,48.6,0,0,1,8.17,1.58c5.57,1.43,11,3.84,16.46,5.82,2.69,1.13,5.39,2,8,2.91,2.68.59,5.27,1.62,7.85,1.84a40,40,0,0,0,7.44.58,18.61,18.61,0,0,0,2-.16,64.16,64.16,0,0,0,19.11-13A43.46,43.46,0,0,1,193.53,125.76Z"/><path class="cls-2" d="M182,108.66c1.7-.19,3.61-.78,5.68-1.18,4.15-1.08,8.86-2.64,14.08-4.28,2.63-.82,5.38-1.63,8.26-2.27,2.24-.44,4.54-.82,6.84-1.09A64.06,64.06,0,1,0,96.24,98.08c.93-.29,1.81-.57,2.75-.82,2.46-.78,5.15-1.21,7.79-1.76l4-.7,4-.18a65.84,65.84,0,0,1,7.82,0c2.51.33,4.92.77,7.2,1.16a28.16,28.16,0,0,1,6.29,1.48c3.79,1.34,6.84,2.68,9,3.51s3.31,1.45,3.31,1.45-1.34-.1-3.63-.4-5.53-.68-9.32-1.36a39.65,39.65,0,0,0-6.18-.48c-2.18-.09-4.48-.17-6.83-.37s-4.78.42-7.25.49l-3.71.25-3.71.75c-2.49.46-5,.77-7.45,1.48-.74.19-1.45.33-2.18.5a63.89,63.89,0,0,0,7.06,12.19l2.07-1.68,3.09-1.57,3.66-1.77c1.32-.46,2.77-.72,4.27-1.1,3-1,6.34-.94,9.91-1.09a62.15,62.15,0,0,1,10.9,1.27c7.49,1.33,14.89,4,22.26,6.06,3.66,1.22,7.29,2.1,10.88,3,3.58.54,7.1,1.62,10.52,1.66a51.63,51.63,0,0,0,9.86,0,20.72,20.72,0,0,0,4.52-.74l4.26-.85,6.5-2.41a64.36,64.36,0,0,0,6.54-10.64c-1.13.17-2.27.34-3.39.54-2.72.58-5.43,1.08-8.05,1.73a108.7,108.7,0,0,1-14.81,2.76,40.09,40.09,0,0,1-6.11.15,36.77,36.77,0,0,1-4.65-.38c-2.52-.39-4-.7-4-.7s1.46-.17,4-.34A33.41,33.41,0,0,0,182,108.66ZM162.61,85.38l-3.93,25.21c-1.27-.37-2.55-.74-3.77-1.17l-3.72-24-12.58,9.18-4.14-1.38L144.82,79,112,74a.66.66,0,0,1-.53-.7.61.61,0,0,1,.53-.58l32.75-5.15L129.48,46.73a.65.65,0,0,1,.11-.79.68.68,0,0,1,.63-.06l21,15.35,5.05-32.81c0-.64,1.17-.64,1.27,0l5.1,32.81,20.91-15.29c.42-.32,1.06.26.79.79L169,67.54l32.8,5.15a.61.61,0,0,1,.47.58.66.66,0,0,1-.47.7L169,79l15.33,21a.53.53,0,0,1-.05.64.58.58,0,0,1-.74.11Z"/><path class="cls-2" d="M162.5,73.31a5.63,5.63,0,1,1-5.63-5.61A5.63,5.63,0,0,1,162.5,73.31Z"/></svg>