<svg id="Layer_1" data-name="Layer 1" xmlns="http://www.w3.org/2000/svg" viewBox="0 0 233.55 207.41"><defs><style>.cls-1{fill:#fff;}</style></defs><path class="cls-1" d="M114.56,191.48l-12.18-5c-4-1.55-7.79-3.29-11.55-4.52A99,99,0,0,0,80,178.72c-3.49-.42-6.84-1.3-9.93-1l-4.5,0-3.94.66L58,179h0a95.26,95.26,0,0,0,77.64,18.44c-2.76-.46-5.52-1-8.3-1.67C123.05,194.41,118.69,193.11,114.56,191.48Zm56.92-15.75c-2.62.46-5.32.9-8.06,1.35s-5.6.14-8.48.23c-5.82.21-11.61-.81-17.52-1.72-5.74-1.34-11.63-2.63-17.23-4.37l-16.53-5.38C98.28,164.19,93.08,162.27,88,161a62.62,62.62,0,0,0-7.47-1.8c-2.44-.45-4.84-1.14-7.17-1.39-4.64-.23-9.15-1.06-13.2-.41-2,.17-4.05.27-5.92.49l-5.09,1.32-4.66,1.14c-1.26.59-2.37,1.1-3.43,1.61A97,97,0,0,0,56,177.5l.91-.62,3.61-1.52,4.24-1.73c1.53-.42,3.18-.58,4.91-.88,3.48-.84,7.24-.54,11.25-.4,3.89.57,8.18,1,12.19,2.34,8.32,2.14,16.44,5.73,24.56,8.7,4,1.67,8,3,12,4.33,4,.89,7.86,2.42,11.71,2.75a58.65,58.65,0,0,0,11.11.86,26.42,26.42,0,0,0,3-.24A95.72,95.72,0,0,0,184,171.68C180.15,173.11,176.06,175,171.48,175.73Z"/><path class="cls-1" d="M154.25,150.23c2.54-.29,5.4-1.18,8.49-1.77,6.18-1.6,13.22-3.93,21-6.39,3.92-1.21,8-2.43,12.31-3.38,3.35-.66,6.78-1.22,10.22-1.63a95.59,95.59,0,1,0-180-2.63c1.39-.42,2.69-.84,4.09-1.22,3.68-1.16,7.7-1.8,11.64-2.63l5.93-1,6-.27a103.33,103.33,0,0,1,11.67,0c3.75.5,7.35,1.15,10.74,1.74s6.63,1,9.39,2.21c5.65,2,10.21,4,13.4,5.24s5,2.16,5,2.16-2-.15-5.42-.59-8.26-1-13.91-2c-2.81-.69-6-.48-9.22-.71s-6.69-.26-10.2-.55c-3.52-.11-7.14.63-10.82.72l-5.53.38-5.54,1.12c-3.72.69-7.43,1.15-11.12,2.21-1.1.28-2.15.49-3.24.74a94.71,94.71,0,0,0,10.53,18.19l3.08-2.51,4.62-2.33,5.45-2.65c2-.68,4.14-1.07,6.38-1.64,4.49-1.44,9.47-1.4,14.79-1.62,5.16.37,10.86.52,16.27,1.88,11.17,2,22.22,6,33.21,9.06,5.46,1.81,10.88,3.12,16.24,4.51,5.35.81,10.6,2.42,15.7,2.48a77.84,77.84,0,0,0,14.71.06c2.39.08,4.56-.7,6.74-1.1l6.36-1.27c3.54-1.3,6.76-2.51,9.71-3.6a96.51,96.51,0,0,0,9.76-15.88c-1.7.25-3.39.52-5.07.8-4.05.88-8.1,1.62-12,2.6A163.93,163.93,0,0,1,163.51,153a60.91,60.91,0,0,1-9.12.23,57.37,57.37,0,0,1-6.94-.57c-3.76-.59-5.91-1-5.91-1s2.19-.24,6-.5A51.1,51.1,0,0,0,154.25,150.23Zm-28.92-34.75-5.86,37.62c-1.9-.55-3.8-1.1-5.62-1.74l-5.55-35.88-18.78,13.7-6.17-2.06L98.79,106,49.84,98.45a1,1,0,0,1-.79-1,.92.92,0,0,1,.79-.87l48.88-7.68L75.9,57.81a1,1,0,0,1,.16-1.18,1,1,0,0,1,1-.09l31.29,22.9,7.53-48.95c.08-1,1.74-1,1.9,0l7.6,49,31.21-22.81c.63-.48,1.58.38,1.18,1.18L134.84,88.87l48.95,7.68a.93.93,0,0,1,.71.87,1,1,0,0,1-.71,1L134.84,106l22.88,31.28a.8.8,0,0,1-.07,1,.87.87,0,0,1-1.11.15Z"/><path class="cls-1" d="M125.17,97.48a8.4,8.4,0,1,1-8.39-8.39A8.4,8.4,0,0,1,125.17,97.48Z"/></svg>