<svg id="Layer_1" data-name="Layer 1" xmlns="http://www.w3.org/2000/svg" viewBox="0 0 233.55 207.41"><defs><style>.cls-1{fill:#1d71b8;}.cls-2{fill:#14448a;}</style></defs><path class="cls-1" d="M114.46,195.37l-12.72-5.2c-4.15-1.62-8.14-3.44-12.06-4.73a104.67,104.67,0,0,0-11.35-3.39c-3.65-.44-7.15-1.36-10.38-1.09l-4.69,0-4.12.7-3.75.63h0a99.38,99.38,0,0,0,81.08,19.26c-2.87-.48-5.76-1.09-8.66-1.75C123.33,198.44,118.78,197.07,114.46,195.37Zm59.45-16.44c-2.74.47-5.56.94-8.42,1.41s-5.85.14-8.85.24c-6.09.22-12.13-.85-18.31-1.8-6-1.4-12.14-2.75-18-4.57l-17.28-5.61c-5.61-1.73-11-3.73-16.34-5.06a66.23,66.23,0,0,0-7.8-1.88c-2.55-.47-5.05-1.19-7.49-1.45-4.84-.24-9.55-1.11-13.78-.43-2.13.18-4.23.28-6.18.52-1.87.47-3.65.94-5.32,1.37l-4.86,1.2-3.59,1.67a100.94,100.94,0,0,0,15.57,16.23l.95-.65L58,178.54l4.43-1.81c1.6-.43,3.33-.6,5.13-.92,3.63-.88,7.56-.56,11.75-.42,4.06.6,8.54,1.06,12.73,2.45,8.68,2.23,17.17,6,25.65,9.08,4.19,1.75,8.4,3.11,12.53,4.53,4.17.93,8.21,2.52,12.23,2.87a61.45,61.45,0,0,0,11.61.9,28.59,28.59,0,0,0,3.1-.25A99.85,99.85,0,0,0,187,174.7C183,176.19,178.69,178.16,173.91,178.93Z"/><path class="cls-2" d="M155.92,152.29c2.64-.3,5.63-1.22,8.86-1.85,6.46-1.67,13.8-4.1,21.94-6.67,4.1-1.26,8.39-2.53,12.86-3.53,3.5-.69,7.08-1.27,10.68-1.7a99.83,99.83,0,1,0-188-2.75c1.45-.44,2.82-.87,4.28-1.27,3.84-1.21,8-1.88,12.15-2.74l6.19-1.09,6.3-.29a105.67,105.67,0,0,1,12.2,0c3.91.52,7.67,1.19,11.21,1.81s6.92,1,9.81,2.31c5.9,2.08,10.65,4.17,14,5.47s5.17,2.25,5.17,2.25-2.1-.15-5.67-.61-8.62-1.06-14.52-2.13c-2.93-.72-6.23-.5-9.63-.74s-7-.28-10.65-.58c-3.68-.11-7.45.66-11.3.76l-5.78.39-5.78,1.17c-3.88.72-7.76,1.21-11.61,2.31-1.15.29-2.26.52-3.39.78a99,99,0,0,0,11,19c1-.8,2-1.67,3.22-2.62l4.82-2.44L50,154.75c2.07-.71,4.32-1.11,6.66-1.72,4.69-1.5,9.89-1.45,15.45-1.69,5.39.39,11.34.55,17,2,11.67,2.08,23.21,6.22,34.69,9.46,5.7,1.89,11.36,3.26,17,4.72,5.58.83,11.06,2.52,16.39,2.58a81.47,81.47,0,0,0,15.37.06c2.5.08,4.76-.73,7-1.14l6.64-1.33c3.69-1.36,7.06-2.62,10.14-3.77a99.93,99.93,0,0,0,10.19-16.58c-1.77.27-3.54.54-5.29.84-4.24.92-8.46,1.69-12.55,2.71a172.31,172.31,0,0,1-23.08,4.3,63.56,63.56,0,0,1-9.52.23,58.1,58.1,0,0,1-7.25-.59c-3.92-.62-6.17-1.09-6.17-1.09s2.28-.26,6.25-.53A53.08,53.08,0,0,0,155.92,152.29ZM125.71,116l-6.12,39.3c-2-.59-4-1.16-5.87-1.82L107.92,116,88.31,130.31l-6.44-2.15L98,106.08,46.87,98.22a1,1,0,0,1-.82-1.08,1,1,0,0,1,.82-.91l51.05-8L74.09,55.77a1,1,0,0,1,.17-1.23,1,1,0,0,1,1-.09l32.68,23.91,7.87-51.12c.08-1,1.82-1,2,0l7.94,51.12L158.3,54.54c.67-.5,1.66.4,1.24,1.23l-23.9,32.44,51.12,8a1,1,0,0,1,.74.91,1,1,0,0,1-.74,1.08l-51.12,7.86,23.9,32.67a.85.85,0,0,1-.08,1,.9.9,0,0,1-1.16.16Z"/><path class="cls-1" d="M125.54,97.2a8.77,8.77,0,1,1-8.76-8.76A8.77,8.77,0,0,1,125.54,97.2Z"/></svg>