<svg width="88" height="88" viewBox="0 0 88 88" fill="none" xmlns="http://www.w3.org/2000/svg">
<path d="M78.2223 73.3333H9.7778C8.48119 73.3333 7.23768 72.8182 6.32084 71.9014C5.40399 70.9845 4.88892 69.741 4.88892 68.4444V19.5555C4.88892 18.2589 5.40399 17.0154 6.32084 16.0985C7.23768 15.1817 8.48119 14.6666 9.7778 14.6666H78.2223C79.5189 14.6666 80.7624 15.1817 81.6792 16.0985C82.5961 17.0154 83.1111 18.2589 83.1111 19.5555V68.4444C83.1111 69.741 82.5961 70.9845 81.6792 71.9014C80.7624 72.8182 79.5189 73.3333 78.2223 73.3333ZM9.7778 19.5555V68.4444H78.2223V19.5555H9.7778Z" fill="#394D5C"/>
<path d="M22 61.8444C21.4813 61.8444 20.9839 61.6384 20.6172 61.2716C20.2505 60.9049 20.0444 60.4075 20.0444 59.8888V28.1111C20.0444 27.5924 20.2505 27.095 20.6172 26.7283C20.9839 26.3615 21.4813 26.1555 22 26.1555C22.5186 26.1555 23.016 26.3615 23.3828 26.7283C23.7495 27.095 23.9555 27.5924 23.9555 28.1111V59.8888C23.9555 60.4075 23.7495 60.9049 23.3828 61.2716C23.016 61.6384 22.5186 61.8444 22 61.8444Z" fill="#394D5C"/>
<path d="M36.4712 61.8444C35.9525 61.8444 35.4551 61.6384 35.0884 61.2716C34.7217 60.9049 34.5156 60.4075 34.5156 59.8888V28.1111C34.5156 27.5924 34.7217 27.095 35.0884 26.7283C35.4551 26.3615 35.9525 26.1555 36.4712 26.1555C36.9898 26.1555 37.4872 26.3615 37.854 26.7283C38.2207 27.095 38.4267 27.5924 38.4267 28.1111V59.8888C38.4267 60.4075 38.2207 60.9049 37.854 61.2716C37.4872 61.6384 36.9898 61.8444 36.4712 61.8444Z" fill="#394D5C"/>
<path d="M51.3332 61.8444C50.8146 61.8444 50.3172 61.6384 49.9505 61.2716C49.5837 60.9049 49.3777 60.4075 49.3777 59.8888V28.1111C49.3777 27.5924 49.5837 27.095 49.9505 26.7283C50.3172 26.3615 50.8146 26.1555 51.3332 26.1555C51.8519 26.1555 52.3493 26.3615 52.716 26.7283C53.0828 27.095 53.2888 27.5924 53.2888 28.1111V59.8888C53.2888 60.4075 53.0828 60.9049 52.716 61.2716C52.3493 61.6384 51.8519 61.8444 51.3332 61.8444Z" fill="#394D5C"/>
<path d="M66 61.8444C65.4813 61.8444 64.9839 61.6384 64.6172 61.2716C64.2505 60.9049 64.0444 60.4075 64.0444 59.8888V28.1111C64.0444 27.5924 64.2505 27.095 64.6172 26.7283C64.9839 26.3615 65.4813 26.1555 66 26.1555C66.5186 26.1555 67.016 26.3615 67.3828 26.7283C67.7495 27.095 67.9555 27.5924 67.9555 28.1111V59.8888C67.9555 60.4075 67.7495 60.9049 67.3828 61.2716C67.016 61.6384 66.5186 61.8444 66 61.8444Z" fill="#394D5C"/>
</svg>
