<svg width="96" height="96" viewBox="0 0 96 96" fill="none" xmlns="http://www.w3.org/2000/svg">
<g clip-path="url(#clip0)">
<path d="M84.5427 25.6816V43.1711H11.4346V25.6816C11.4346 17.7517 18.0146 11.116 25.9446 11.6221C27.4065 7.57324 32.1863 4.61133 36.4607 6.01758C39.0469 2.30566 43.3213 0 47.989 0C52.6567 0 56.9312 2.30566 59.5173 6.01758C63.7354 4.61133 68.5715 7.57324 70.0342 11.6221C77.907 11.1724 84.5427 17.7517 84.5427 25.6816Z" fill="#56C225"/>
<path d="M84.5427 25.6816V43.1711H47.989V0C52.6567 0 56.9312 2.30566 59.5173 6.01758C63.7354 4.61133 68.5715 7.57324 70.0342 11.6221C77.907 11.1724 84.5427 17.7517 84.5427 25.6816Z" fill="#49A520"/>
<path d="M95.978 34.1169C95.978 27.9309 90.7288 22.8699 84.5427 22.8699C82.1814 22.8699 79.875 23.6572 77.9634 25.0627C75.7141 23.6572 73.1272 22.8699 70.4839 22.8699C63.7917 22.8699 58.1682 27.5933 56.762 34.1169C54.8496 34.0605 52.938 34.3418 51.0256 34.9607C49.957 35.2976 48.9448 35.748 47.989 36.3105L46.2825 71.4338L54.6248 95.8088C61.6545 95.0215 67.8406 90.8606 71.1584 84.5618C74.9824 85.1243 79.7629 84.3933 85.3301 78.8254C90.5413 73.522 91.678 66.3757 88.6106 60.5486C93.1099 58.1301 95.978 53.4631 95.978 48.1765C95.978 45.5332 95.1907 42.9463 93.7844 40.697C95.1907 38.7847 95.978 36.479 95.978 34.1169Z" fill="#56C225"/>
<path d="M84.2469 46.9189C83.5518 45.5295 81.8606 44.9692 80.4734 45.6614L73.2957 49.2502V36.9287C73.2957 35.3745 72.0381 34.1169 70.4839 34.1169C68.9297 34.1169 67.6722 35.3745 67.6722 36.9287V53.3782C66.8921 56.439 65.8689 59.406 64.6531 62.2844L61.5454 57.8174C60.6585 56.5437 58.9043 56.2302 57.6299 57.1143C56.3555 58.0012 56.0398 59.7532 56.9268 61.0305L61.7937 68.0273C58.5901 73.8538 54.5559 79.2092 49.6121 83.7942C48.4725 84.8518 48.4065 86.6279 49.4605 87.7676C50.5174 88.908 52.2986 88.9739 53.4339 87.9185C58.3521 83.3584 62.5262 78.1436 65.8726 72.4424L75.8189 73.4692C77.4829 73.6084 78.753 72.4175 78.9053 70.96C79.065 69.4167 77.9414 68.0354 76.3953 67.8735L68.6763 67.0759C70.388 63.4548 71.7818 59.6755 72.8401 55.7666L82.9886 50.6917C84.378 49.9973 84.9412 48.3083 84.2469 46.9189Z" fill="#49A520"/>
<path d="M50.0134 70.4458L56.0874 91.4788L52.7131 95.9216L52.6567 95.978H43.8274C42.9836 95.978 42.1406 95.9216 41.3533 95.8088C41.2969 95.8088 41.2969 95.8088 41.2405 95.7524C34.2671 95.0215 28.1375 90.8042 24.8196 84.5618C20.9956 85.1243 16.2151 84.3933 10.6472 78.8254C7.49854 75.6204 5.56714 71.5144 5.62354 67.522C5.67993 65.0479 6.42993 62.6851 7.5542 60.5486C3.05566 58.1301 0 53.4624 0 48.1765C0 45.5332 0.787354 42.9463 2.1936 40.697C0.787354 38.7847 0 36.479 0 34.1169C0 27.9309 5.24927 22.8699 11.4346 22.8699C13.7966 22.8699 16.103 23.6572 18.0146 25.0627C20.2639 23.6572 22.8508 22.8699 25.4941 22.8699C32.2991 22.8699 37.9783 27.7061 39.2725 34.1169C41.1284 34.0605 43.0964 34.3418 44.9524 34.9607C46.021 35.2976 47.0332 35.748 47.989 36.3105C51.7002 38.447 54.5684 41.9341 55.7498 46.0957C57.3801 51.832 56.1431 57.6248 52.3191 62.0105C50.0698 64.5974 49.2261 67.634 50.0134 70.4458Z" fill="#90E36A"/>
<path d="M50.0134 70.4458L56.0874 91.4788L52.7131 95.9216L52.6567 95.978H47.989V36.3105C51.7002 38.447 54.5684 41.9341 55.7498 46.0957C57.3801 51.8313 56.1431 57.624 52.3191 62.0105C50.0698 64.5974 49.2261 67.634 50.0134 70.4458Z" fill="#70DA40"/>
<path d="M55.8625 94.853C55.5249 95.3035 55.1316 95.584 54.6248 95.8088C53.8374 96.0901 53.3877 95.978 52.6567 95.978C52.6567 95.978 52.6003 95.978 52.6003 95.9216C51.0256 94.7966 49.5073 93.6716 47.989 92.491C45.4585 90.4666 42.928 88.3293 40.4531 85.8552C36.854 82.2561 33.4233 77.9253 30.1619 72.4146L20.1519 73.4832C18.4644 73.5952 17.2273 72.4146 17.0588 70.9526C16.8897 69.4336 18.0147 68.0281 19.5894 67.8596L27.3501 67.0723C25.6069 63.4731 24.2007 59.6484 23.1321 55.7681L13.0093 50.707C11.6038 49.9761 11.0413 48.2886 11.7158 46.9395C12.4468 45.5332 14.1343 44.9714 15.4834 45.646L22.6824 49.2451V36.9287C22.6824 35.354 23.9194 34.1169 25.4941 34.1169C27.0689 34.1169 28.3059 35.354 28.3059 36.9287V53.4067C29.0933 56.4434 30.1055 59.4236 31.3425 62.2917L34.4355 57.7932C35.335 56.5562 37.0789 56.2185 38.3723 57.1179C39.6094 58.0181 39.947 59.7612 39.0469 61.0547L34.1543 68.0845C36.4043 72.1333 38.822 75.564 41.3525 78.4885C43.4897 80.9626 45.6833 83.1555 47.989 85.1243C50.6316 87.4299 53.3313 89.5107 56.0867 91.4788C56.1431 92.0413 56.9311 93.4475 55.8625 94.853Z" fill="#56C225"/>
<path d="M55.8625 94.853C55.5249 95.3035 55.1316 95.584 54.6248 95.8088C53.8374 96.0901 53.3877 95.978 52.6567 95.978C52.6567 95.978 52.6003 95.978 52.6003 95.9216C51.0256 94.7966 49.5073 93.6716 47.989 92.491V85.1243C50.6323 87.4299 53.3313 89.5107 56.0874 91.4788C56.1431 92.0413 56.9311 93.4475 55.8625 94.853Z" fill="#49A520"/>
</g>
<defs>
<clipPath id="clip0">
<rect width="96" height="96" fill="white"/>
</clipPath>
</defs>
</svg>
