<?xml version="1.0" encoding="UTF-8" standalone="no"?>
<!DOCTYPE svg PUBLIC "-//W3C//DTD SVG 1.1//EN" "http://www.w3.org/Graphics/SVG/1.1/DTD/svg11.dtd">
<svg width="100%" height="100%" viewBox="0 0 630 200" version="1.1" xmlns="http://www.w3.org/2000/svg" xmlns:xlink="http://www.w3.org/1999/xlink" xml:space="preserve" xmlns:serif="http://www.serif.com/" style="fill-rule:evenodd;clip-rule:evenodd;stroke-linejoin:round;stroke-miterlimit:2;">
    <g transform="matrix(1,0,0,1,-11,-226)">
        <path d="M444.2,373.3C442.4,363.5 442.6,354 444.4,345.7L378.4,375.5L458.9,400.9C453.7,393.4 446.1,384 444.2,373.3" style="fill:white;fill-rule:nonzero;"/>
        <path d="M449.2,322.2L370.8,296.2C376.1,303.2 380.4,312.1 382.9,322.3C385.5,332.6 385.8,342.7 384.3,351.4L449.2,322.2Z" style="fill:white;fill-rule:nonzero;"/>
        <path d="M109.7,399.7L20.2,399.7C21.3,397.7 22,395.2 22.4,392.1L39.3,250.3C39.7,247.2 39.6,244.6 39,242.5L81.1,242.5C80.1,244.5 79.3,247.1 78.9,250.3L63.2,381.7L102.3,381.7C106.6,381.6 109.8,381.2 112,380.3L109.7,399.7Z" style="fill:white;fill-rule:nonzero;"/>
        <path d="M190.8,288.4C207.2,288.4 219.8,292.5 228.8,300.7C239.3,310.3 243.4,325.1 241,345C238.7,364.1 231.7,378.5 219.9,388.3C208.9,397.3 194.4,401.8 176.6,401.8C164.1,401.8 154.3,399.9 147.1,396C137.9,390.9 131.8,383.1 128.6,372.5C126.2,364.6 125.7,355.1 127,344.2C128.5,331.9 132.2,321.4 138.2,312.7C149.4,296.7 166.8,288.6 190.8,288.4M189.4,300.3C170.9,300.3 159.8,315 156.3,344.3C155.4,352.2 155.1,358.7 155.4,363.9C155.8,369.1 156.8,373.7 158.5,377.8C162,386 168.7,390.1 178.7,390.1C187.8,390.1 195.1,386.4 200.7,378.9C206.3,371.5 209.9,360.4 211.7,345.7C213.5,330.9 212.6,319.7 209.2,312.1C205.7,304.4 199.1,300.4 189.4,300.3" style="fill:white;fill-rule:nonzero;"/>
    </g>
    <g transform="matrix(1,0,0,1,-11,-226)">
        <path d="M357.1,294L354.9,312.2C346.3,304.9 337,301.3 326.9,301.3C317.2,301.3 309,304.6 302.4,311.3C298.5,315.3 295.4,320.2 293.1,325.9C290.8,331.6 289.2,338.5 288.2,346.6C286.5,361.2 287.9,372.3 292.4,379.8C294.3,383 296.9,385.5 300.3,387.2C303.7,389 307.4,389.9 311.4,389.9C315.3,389.9 319.2,388.8 323,386.7L328,345.2C328.2,342.9 328.1,341.2 327.7,339.9L356.2,339.9C355.5,341.4 355,343.1 354.7,345.2L349.7,387.3C349.4,390.2 349.5,392.7 350,394.7C339.4,397.8 331.5,399.8 326.5,400.7C321.5,401.5 315.3,401.9 308.1,401.9C296.5,401.9 287.2,400.1 280.3,396.6C271.5,392 265.3,385 261.8,375.8C258.6,367.6 257.7,357.7 259,346.3C261.3,326.8 269.3,311.9 283,301.4C294.2,292.7 308.3,288.4 325.4,288.4C335.6,288.2 346.3,290.1 357.1,294" style="fill:white;fill-rule:nonzero;"/>
        <path d="M620.2,242.4C619.1,244.6 618.4,247.2 618,250.2L606.1,345.1C604.4,358.7 599.4,370.2 591.2,379.5C578.1,394.1 558.2,401.4 531.5,401.4C515.5,401.4 503.2,398.8 494.4,393.6C477.8,383.5 470.9,367.1 473.7,344.5L485.5,250.3C485.9,247.3 485.8,244.7 485.2,242.5L527.3,242.5C526.2,244.7 525.4,247.3 525.1,250.3L513,346.6C511.8,356.4 513.1,364.3 517,370.2C522.4,378.5 531.7,382.7 544.7,382.7C557,382.7 567,379.3 574.5,372.5C582,365.7 586.6,356.1 588.1,343.4L599.8,250.1C600.1,246.8 600,244.2 599.5,242.3L620.2,242.3L620.2,242.4Z" style="fill:white;fill-rule:nonzero;"/>
    </g>
</svg>
