<?xml version="1.0" encoding="utf-8"?>
<!-- Generator: Adobe Illustrator 25.4.1, SVG Export Plug-In . SVG Version: 6.00 Build 0)  -->
<svg version="1.1" id="Ebene_1" xmlns="http://www.w3.org/2000/svg" xmlns:xlink="http://www.w3.org/1999/xlink" x="0px" y="0px"
	 viewBox="0 0 100 125" style="enable-background:new 0 0 100 125;" xml:space="preserve">
<style type="text/css">
	.st0{fill:#394D5C;}
</style>
<g>
	<path class="st0" d="M94.2,0H5.8C4,0,2.5,1.5,2.5,3.3v90.1c0,0.2,0,0.5,0.1,0.7c0,0,0,0.1,0,0.1c0.1,0.2,0.2,0.5,0.3,0.7
		c0,0.1,0.1,0.1,0.1,0.2c0.2,0.3,0.3,0.5,0.6,0.7l30.3,28.3c0.2,0.1,0.3,0.3,0.5,0.4l0.2,0.1l0.3,0.2c0.1,0,0.2,0.1,0.3,0.1h0.3
		c0.2,0,0.4,0,0.6,0h58.1c1.8,0,3.3-1.5,3.3-3.3V3.3C97.5,1.5,96,0,94.2,0z M32.7,114l-6.9-6.5L14.3,96.7h18.4V114z M90.8,118.4
		H39.4V93.5c0-1.8-1.5-3.3-3.3-3.3H9.2V6.7h81.7V118.4z"/>
	<path class="st0" d="M23.3,26.7h55c1.8,0,3.3-1.5,3.3-3.3c0-1.8-1.5-3.3-3.3-3.3h-55c-1.8,0-3.3,1.5-3.3,3.3
		C20,25.2,21.5,26.7,23.3,26.7z"/>
	<path class="st0" d="M23.3,46.7h55c1.8,0,3.3-1.5,3.3-3.3S80.2,40,78.3,40h-55c-1.8,0-3.3,1.5-3.3,3.3S21.5,46.7,23.3,46.7z"/>
	<path class="st0" d="M78.3,61.7H25c-1.8,0-3.3,1.5-3.3,3.3c0,1.8,1.5,3.3,3.3,3.3h53.4c1.8,0,3.3-1.5,3.3-3.3
		C81.7,63.2,80.2,61.7,78.3,61.7z"/>
	<path class="st0" d="M78.3,83.4h-30c-1.8,0-3.3,1.5-3.3,3.3c0,1.8,1.5,3.3,3.3,3.3h30c1.8,0,3.3-1.5,3.3-3.3
		C81.7,84.9,80.2,83.4,78.3,83.4z"/>
</g>
</svg>
